<?xml version="1.0" standalone="no"?>
<!DOCTYPE svg PUBLIC "-//W3C//DTD SVG 20010904//EN"
 "http://www.w3.org/TR/2001/REC-SVG-20010904/DTD/svg10.dtd">
<svg version="1.0" xmlns="http://www.w3.org/2000/svg"
 width="300.000000pt" height="300.000000pt" viewBox="0 0 300.000000 300.000000"
 preserveAspectRatio="xMidYMid meet">
<metadata>
Created by potrace 1.11, written by Peter Selinger 2001-2013
</metadata>
<g transform="translate(0.000000,300.000000) scale(0.100000,-0.100000)"
fill="#000000" stroke="none">
<path d="M0 1500 l0 -1500 1500 0 1500 0 0 1500 0 1500 -1500 0 -1500 0 0
-1500z m2000 595 c120 -25 194 -74 234 -154 31 -61 37 -90 37 -170 0 -104 -44
-182 -137 -241 l-42 -26 49 -24 c58 -27 113 -85 143 -149 28 -62 29 -192 2
-271 -28 -82 -119 -168 -211 -200 -68 -24 -79 -25 -430 -28 -212 -2 -356 0
-350 6 6 5 30 14 55 21 132 38 227 130 249 242 8 39 9 34 10 -44 l1 -89 183 4
c173 3 185 4 232 29 94 48 136 163 102 280 -18 61 -52 99 -112 126 -32 14 -76
18 -222 21 l-183 4 -1 -114 c0 -110 -1 -112 -13 -66 -16 61 -54 117 -111 164
-42 36 -45 42 -45 86 l0 48 48 0 c188 1 453 20 488 35 84 35 124 95 124 185 0
75 -18 120 -62 153 -48 37 -103 46 -275 47 l-153 0 -1 -112 c-1 -90 -3 -104
-9 -67 -13 75 -45 136 -105 195 -45 46 -55 61 -55 90 l0 34 244 0 c179 0 264
-4 316 -15z m-553 -957 c-2 -18 -4 -6 -4 27 0 33 2 48 4 33 2 -15 2 -42 0 -60z"/>
</g>
</svg>
